<svg version="1.0" xmlns="http://www.w3.org/2000/svg"
 width="2821.000000pt" height="1903.000000pt" viewBox="0 0 2821.000000 1903.000000"
 preserveAspectRatio="xMidYMid meet">

<g transform="translate(0.000000,1903.000000) scale(0.100000,-0.100000)"
fill="#000000" stroke="none">
<path d="M8085 14045 l-70 -54 -5 -313 c-5 -302 -5 -321 24 -553 l29 -240 70
-140 c38 -77 62 -133 54 -126 -38 31 -754 152 -1367 230 -798 103 -1233 131
-2445 161 -336 9 -471 8 -750 -5 -308 -14 -349 -18 -440 -42 -55 -15 -103 -31
-106 -36 -4 -5 -12 -41 -18 -80 l-12 -72 178 -175 c193 -190 313 -297 583
-521 489 -405 831 -657 1415 -1045 442 -293 554 -362 970 -596 557 -314 466
-268 1103 -562 353 -163 586 -264 750 -325 130 -48 342 -128 470 -177 210 -80
232 -90 227 -109 -6 -19 -5 -19 6 -2 6 11 7 23 3 27 -21 19 -465 202 -785 324
-79 30 -394 173 -699 319 -518 246 -587 282 -1030 537 -408 235 -543 319 -960
598 -793 532 -1287 918 -1962 1535 l-207 189 6 47 c3 25 7 47 8 49 9 11 280
32 535 42 456 17 1561 -15 2210 -66 576 -44 1448 -162 2064 -278 219 -41 232
-43 273 -29 33 11 42 19 38 32 -71 226 -95 331 -119 522 -23 177 -26 238 -25
430 2 123 -1 267 -5 320 l-8 96 53 31 54 30 240 -18 240 -18 355 -127 c298
-106 383 -140 527 -216 397 -206 822 -463 997 -603 241 -193 616 -520 857
-746 103 -97 152 -137 204 -162 37 -18 70 -28 72 -23 28 82 143 298 232 438
108 169 121 184 253 310 l139 132 179 91 c99 50 246 121 327 158 144 66 157
70 483 142 l335 74 374 -25 374 -24 246 -82 c245 -82 247 -83 428 -192 151
-92 204 -131 316 -233 75 -67 161 -141 193 -164 l57 -43 2221 7 c1222 4 2226
3 2232 -1 21 -16 44 -58 44 -80 0 -15 -13 -31 -37 -48 l-38 -25 -2267 0 -2267
0 -140 -64 c-198 -90 -301 -172 -398 -316 -39 -58 -97 -156 -127 -217 -47 -95
-58 -128 -71 -213 -19 -128 -20 -495 -1 -716 9 -109 12 -238 9 -395 l-6 -234
-69 -205 c-45 -132 -107 -286 -175 -435 -97 -208 -122 -252 -262 -460 l-156
-231 -295 -262 -295 -262 -308 -171 c-288 -161 -327 -179 -610 -290 -289 -114
-318 -123 -657 -209 -195 -49 -470 -110 -610 -135 -186 -34 -259 -51 -269 -63
-25 -32 -49 -97 -82 -228 l-33 -132 17 -123 c19 -127 78 -381 123 -523 20 -65
22 -82 12 -91 -7 -7 -95 -74 -195 -149 -176 -131 -191 -140 -470 -276 -477
-234 -1325 -556 -2100 -800 -505 -159 -956 -291 -1060 -310 -119 -22 -102 -28
-160 53 l-27 38 28 157 c16 86 93 427 171 757 135 566 151 624 283 1030 109
333 171 505 276 760 125 302 150 353 293 605 172 302 306 494 455 656 141 152
144 161 14 34 -175 -171 -304 -346 -498 -676 -156 -265 -173 -299 -310 -625
-117 -276 -173 -428 -286 -769 -133 -400 -150 -460 -286 -1020 -86 -353 -155
-662 -171 -759 l-26 -164 43 -54 c24 -30 50 -64 59 -75 14 -18 20 -19 125 -8
116 12 218 39 710 185 629 188 1068 335 1604 538 467 176 643 251 919 387 257
127 298 150 435 252 83 62 175 135 204 162 49 46 52 52 52 96 0 26 -7 67 -15
91 -30 83 -103 394 -120 509 l-17 115 44 155 44 155 245 36 c188 28 324 56
595 123 340 83 362 90 665 209 298 116 330 131 629 296 l315 174 304 270 305
269 161 236 c147 216 171 258 270 467 73 156 132 300 183 450 l75 220 0 315
c1 173 -3 454 -8 623 -10 404 -5 449 76 607 135 267 227 362 457 471 l123 59
2272 0 2272 0 72 58 72 57 0 61 c1 56 -3 66 -36 112 -31 41 -46 52 -88 64 -51
14 -1087 12 -3615 -6 l-815 -6 -177 159 c-158 142 -197 171 -370 277 l-193
117 -254 84 -253 85 -392 25 -392 25 -342 -76 c-389 -87 -398 -90 -792 -288
l-235 -118 -151 -145 c-148 -141 -154 -149 -274 -337 l-122 -193 -22 -119 -22
-120 -22 35 c-50 81 -544 528 -957 865 -200 164 -441 318 -827 532 -325 180
-444 233 -823 364 l-360 126 -210 11 c-318 17 -298 19 -380 -44z"/>
</g>
</svg>
